{"accessors":[{"bufferView":0,"byteOffset":0,"componentType":5123,"count":102,"type":"SCALAR"},{"bufferView":1,"byteOffset":0,"componentType":5126,"count":64,"max":[0.800000309944153,2,0.000000260673004959244],"min":[-0.79999995231628,0,-0.7000002861023],"type":"VEC3"},{"bufferView":2,"byteOffset":0,"componentType":5126,"count":64,"type":"VEC3"},{"bufferView":3,"byteOffset":0,"componentType":5126,"count":64,"type":"VEC2"},{"bufferView":4,"byteOffset":0,"componentType":5126,"count":64,"type":"VEC2"},{"bufferView":5,"byteOffset":0,"componentType":5123,"count":174,"type":"SCALAR"},{"bufferView":6,"byteOffset":0,"componentType":5126,"count":88,"max":[0.800000071525574,2,0.000000357627868652344],"min":[-0.00000005960464,0,-0.1234233379364],"type":"VEC3"},{"bufferView":7,"byteOffset":0,"componentType":5126,"count":88,"type":"VEC3"},{"bufferView":8,"byteOffset":0,"componentType":5126,"count":88,"type":"VEC2"},{"bufferView":9,"byteOffset":0,"componentType":5126,"count":88,"type":"VEC2"},{"bufferView":10,"byteOffset":0,"componentType":5123,"count":174,"type":"SCALAR"},{"bufferView":11,"byteOffset":0,"componentType":5126,"count":88,"max":[0.0000000596046447753906,2,0.000000357627868652344],"min":[-0.80000007152557,0,-0.1234233379364],"type":"VEC3"},{"bufferView":12,"byteOffset":0,"componentType":5126,"count":88,"type":"VEC3"},{"bufferView":13,"byteOffset":0,"componentType":5126,"count":88,"type":"VEC2"},{"bufferView":14,"byteOffset":0,"componentType":5126,"count":88,"type":"VEC2"},{"bufferView":15,"byteOffset":0,"componentType":5123,"count":12,"type":"SCALAR"},{"bufferView":16,"byteOffset":0,"componentType":5126,"count":8,"max":[0.700000047683716,1.89999997615814,-0.01999962329864],"min":[0.100000016391277,0.0999999865889549,-0.02999997138977],"type":"VEC3"},{"bufferView":17,"byteOffset":0,"componentType":5126,"count":8,"type":"VEC3"},{"bufferView":18,"byteOffset":0,"componentType":5126,"count":8,"type":"VEC2"},{"bufferView":19,"byteOffset":0,"componentType":5126,"count":8,"type":"VEC2"},{"bufferView":20,"byteOffset":0,"componentType":5123,"count":12,"type":"SCALAR"},{"bufferView":21,"byteOffset":0,"componentType":5126,"count":8,"max":[-0.10000001639128,1.89999997615814,-0.01999962329864],"min":[-0.70000004768372,0.0999999865889549,-0.02999997138977],"type":"VEC3"},{"bufferView":22,"byteOffset":0,"componentType":5126,"count":8,"type":"VEC3"},{"bufferView":23,"byteOffset":0,"componentType":5126,"count":8,"type":"VEC2"},{"bufferView":24,"byteOffset":0,"componentType":5126,"count":8,"type":"VEC2"}],"asset":{"generator":"FBX2glTF v0.13.1","version":"2.0"},"bufferViews":[{"buffer":0,"byteLength":204,"byteOffset":0,"target":34963},{"buffer":0,"byteLength":768,"byteOffset":204,"target":34962},{"buffer":0,"byteLength":768,"byteOffset":972,"target":34962},{"buffer":0,"byteLength":512,"byteOffset":1740,"target":34962},{"buffer":0,"byteLength":512,"byteOffset":2252,"target":34962},{"buffer":0,"byteLength":348,"byteOffset":2764,"target":34963},{"buffer":0,"byteLength":1056,"byteOffset":3112,"target":34962},{"buffer":0,"byteLength":1056,"byteOffset":4168,"target":34962},{"buffer":0,"byteLength":704,"byteOffset":5224,"target":34962},{"buffer":0,"byteLength":704,"byteOffset":5928,"target":34962},{"buffer":0,"byteLength":348,"byteOffset":6632,"target":34963},{"buffer":0,"byteLength":1056,"byteOffset":6980,"target":34962},{"buffer":0,"byteLength":1056,"byteOffset":8036,"target":34962},{"buffer":0,"byteLength":704,"byteOffset":9092,"target":34962},{"buffer":0,"byteLength":704,"byteOffset":9796,"target":34962},{"buffer":0,"byteLength":24,"byteOffset":10500,"target":34963},{"buffer":0,"byteLength":96,"byteOffset":10524,"target":34962},{"buffer":0,"byteLength":96,"byteOffset":10620,"target":34962},{"buffer":0,"byteLength":64,"byteOffset":10716,"target":34962},{"buffer":0,"byteLength":64,"byteOffset":10780,"target":34962},{"buffer":0,"byteLength":24,"byteOffset":10844,"target":34963},{"buffer":0,"byteLength":96,"byteOffset":10868,"target":34962},{"buffer":0,"byteLength":96,"byteOffset":10964,"target":34962},{"buffer":0,"byteLength":64,"byteOffset":11060,"target":34962},{"buffer":0,"byteLength":64,"byteOffset":11124,"target":34962}],"buffers":[{"byteLength":11188,"uri":"Cabinet.bin"}],"materials":[{"alphaMode":"OPAQUE","doubleSided":false,"extras":{"fromFBX":{"isTruePBR":false,"shadingModel":"Phong"}},"name":"Material","pbrMetallicRoughness":{"baseColorFactor":[0.800000011920929,0.800000011920929,0.800000011920929,1],"metallicFactor":0.400000005960464,"roughnessFactor":0.272165536880493}},{"alphaMode":"OPAQUE","doubleSided":false,"extras":{"fromFBX":{"isTruePBR":false,"shadingModel":"Phong"}},"name":"Glass","pbrMetallicRoughness":{"baseColorFactor":[0.800000011920929,0.800000011920929,0.800000011920929,1],"metallicFactor":0.400000005960464,"roughnessFactor":0.272165536880493}}],"meshes":[{"name":"Cabinet","primitives":[{"attributes":{"NORMAL":2,"POSITION":1,"TEXCOORD_0":3,"TEXCOORD_1":4},"indices":0,"material":0,"mode":4}]},{"name":"CabinetDoorR","primitives":[{"attributes":{"NORMAL":7,"POSITION":6,"TEXCOORD_0":8,"TEXCOORD_1":9},"indices":5,"material":0,"mode":4},{"attributes":{"NORMAL":17,"POSITION":16,"TEXCOORD_0":18,"TEXCOORD_1":19},"indices":15,"material":1,"mode":4}]},{"name":"CabinetDoorL","primitives":[{"attributes":{"NORMAL":12,"POSITION":11,"TEXCOORD_0":13,"TEXCOORD_1":14},"indices":10,"material":0,"mode":4},{"attributes":{"NORMAL":22,"POSITION":21,"TEXCOORD_0":23,"TEXCOORD_1":24},"indices":20,"material":1,"mode":4}]}],"nodes":[{"mesh":0,"name":"Cabinet","rotation":[0,0,0,1],"scale":[1,1,1],"translation":[0,0,0]},{"mesh":1,"name":"CabinetDoorR","rotation":[0,0,0,1],"scale":[1,1,1],"translation":[-0.79999995231628,0,-0.69999998807907]},{"mesh":2,"name":"CabinetDoorL","rotation":[0,0,0,1],"scale":[1,1,1],"translation":[0.799999952316284,0,-0.69999998807907]}],"samplers":[{}],"scene":0,"scenes":[{"name":"Root Scene","nodes":[0,1,2]}]}