{"accessors":[{"bufferView":0,"byteOffset":0,"componentType":5123,"count":36,"type":"SCALAR"},{"bufferView":1,"byteOffset":0,"componentType":5126,"count":24,"max":[0.250000089406967,1,0.250000089406967],"min":[-0.25000008940697,0,-0.25000008940697],"type":"VEC3"},{"bufferView":2,"byteOffset":0,"componentType":5126,"count":24,"type":"VEC3"},{"bufferView":3,"byteOffset":0,"componentType":5126,"count":24,"type":"VEC4"},{"bufferView":4,"byteOffset":0,"componentType":5126,"count":24,"type":"VEC2"}],"asset":{"generator":"FBX2glTF v0.13.1","version":"2.0"},"bufferViews":[{"buffer":0,"byteLength":72,"byteOffset":0,"target":34963},{"buffer":0,"byteLength":288,"byteOffset":72,"target":34962},{"buffer":0,"byteLength":288,"byteOffset":360,"target":34962},{"buffer":0,"byteLength":384,"byteOffset":648,"target":34962},{"buffer":0,"byteLength":192,"byteOffset":1032,"target":34962}],"buffers":[{"byteLength":1224,"uri":"Computer.bin"}],"materials":[{"alphaMode":"OPAQUE","doubleSided":false,"extras":{"fromFBX":{"isTruePBR":false,"shadingModel":"Lambert"}},"name":"DefaultMaterial","pbrMetallicRoughness":{"baseColorFactor":[0.5,0.5,0.5,1],"metallicFactor":0.200000002980232,"roughnessFactor":0.800000011920929}}],"meshes":[{"name":"Cube","primitives":[{"attributes":{"COLOR_0":3,"NORMAL":2,"POSITION":1,"TEXCOORD_0":4},"indices":0,"material":0,"mode":4}]}],"nodes":[{"mesh":0,"name":"Cube","rotation":[0,0,0,1],"scale":[1,1,1],"translation":[0,0,0]}],"samplers":[{}],"scene":0,"scenes":[{"name":"Root Scene","nodes":[0]}]}