{"accessors":[{"bufferView":0,"byteOffset":0,"componentType":5123,"count":654,"type":"SCALAR"},{"bufferView":1,"byteOffset":0,"componentType":5126,"count":228,"max":[0.75,2.40000033378601,0.75],"min":[-0.75,-0.00000012219051,-0.75],"type":"VEC3"},{"bufferView":2,"byteOffset":0,"componentType":5126,"count":228,"type":"VEC3"},{"bufferView":3,"byteOffset":0,"componentType":5126,"count":228,"type":"VEC2"},{"bufferView":4,"byteOffset":0,"componentType":5123,"count":384,"type":"SCALAR"},{"bufferView":5,"byteOffset":0,"componentType":5126,"count":132,"max":[0.600000023841858,2.20000004768372,0.600000381469727],"min":[-0.60000002384186,0.199999839067459,-0.59999996423721],"type":"VEC3"},{"bufferView":6,"byteOffset":0,"componentType":5126,"count":132,"type":"VEC3"},{"bufferView":7,"byteOffset":0,"componentType":5126,"count":132,"type":"VEC2"}],"asset":{"generator":"FBX2glTF v0.13.1","version":"2.0"},"bufferViews":[{"buffer":0,"byteLength":1308,"byteOffset":0,"target":34963},{"buffer":0,"byteLength":2736,"byteOffset":1308,"target":34962},{"buffer":0,"byteLength":2736,"byteOffset":4044,"target":34962},{"buffer":0,"byteLength":1824,"byteOffset":6780,"target":34962},{"buffer":0,"byteLength":768,"byteOffset":8604,"target":34963},{"buffer":0,"byteLength":1584,"byteOffset":9372,"target":34962},{"buffer":0,"byteLength":1584,"byteOffset":10956,"target":34962},{"buffer":0,"byteLength":1056,"byteOffset":12540,"target":34962}],"buffers":[{"byteLength":13596,"uri":"GlassTank.bin"}],"materials":[{"alphaMode":"OPAQUE","doubleSided":false,"extras":{"fromFBX":{"isTruePBR":false,"shadingModel":"Phong"}},"name":"Material.001","pbrMetallicRoughness":{"baseColorFactor":[0.800000011920929,0.800000011920929,0.800000011920929,1],"metallicFactor":0.400000005960464,"roughnessFactor":0.272165536880493}},{"alphaMode":"OPAQUE","doubleSided":false,"extras":{"fromFBX":{"isTruePBR":false,"shadingModel":"Phong"}},"name":"Material.002","pbrMetallicRoughness":{"baseColorFactor":[0.800000011920929,0.800000011920929,0.800000011920929,1],"metallicFactor":0.400000005960464,"roughnessFactor":0.272165536880493}}],"meshes":[{"name":"GlassTank","primitives":[{"attributes":{"NORMAL":2,"POSITION":1,"TEXCOORD_0":3},"indices":0,"material":0,"mode":4},{"attributes":{"NORMAL":6,"POSITION":5,"TEXCOORD_0":7},"indices":4,"material":1,"mode":4}]}],"nodes":[{"mesh":0,"name":"GlassTank","rotation":[0,0,0,1],"scale":[1,1,1],"translation":[0,0,0]}],"samplers":[{}],"scene":0,"scenes":[{"name":"Root Scene","nodes":[0]}]}