{"accessors":[{"bufferView":0,"byteOffset":0,"componentType":5123,"count":282,"type":"SCALAR"},{"bufferView":1,"byteOffset":0,"componentType":5126,"count":98,"max":[0.498743116855621,0.132998287677765,0.498743116855621],"min":[-0.49874311685562,-0.00000016251114,-0.49874311685562],"type":"VEC3"},{"bufferView":2,"byteOffset":0,"componentType":5126,"count":98,"type":"VEC3"},{"bufferView":3,"byteOffset":0,"componentType":5126,"count":98,"type":"VEC2"}],"asset":{"generator":"FBX2glTF v0.13.1","version":"2.0"},"bufferViews":[{"buffer":0,"byteLength":564,"byteOffset":0,"target":34963},{"buffer":0,"byteLength":1176,"byteOffset":564,"target":34962},{"buffer":0,"byteLength":1176,"byteOffset":1740,"target":34962},{"buffer":0,"byteLength":784,"byteOffset":2916,"target":34962}],"buffers":[{"byteLength":3700,"uri":"GlobeBase.bin"}],"materials":[{"alphaMode":"OPAQUE","doubleSided":false,"extras":{"fromFBX":{"isTruePBR":false,"shadingModel":"Phong"}},"name":"Material.001","pbrMetallicRoughness":{"baseColorFactor":[0.800000011920929,0.800000011920929,0.800000011920929,1],"metallicFactor":0.400000005960464,"roughnessFactor":0.272165536880493}}],"meshes":[{"name":"GlassTank","primitives":[{"attributes":{"NORMAL":2,"POSITION":1,"TEXCOORD_0":3},"indices":0,"material":0,"mode":4}]}],"nodes":[{"mesh":0,"name":"GlassTank","rotation":[0,0,0,1],"scale":[1,1,1],"translation":[0,0,0]}],"samplers":[{}],"scene":0,"scenes":[{"name":"Root Scene","nodes":[0]}]}