{"accessors":[{"bufferView":0,"byteOffset":0,"componentType":5123,"count":12672,"type":"SCALAR"},{"bufferView":1,"byteOffset":0,"componentType":5126,"count":2149,"max":[0.5,0.499975919723511,0.500000298023224],"min":[-0.5000005364418,-0.49997591972351,-0.50000011920929],"type":"VEC3"},{"bufferView":2,"byteOffset":0,"componentType":5126,"count":2149,"type":"VEC3"},{"bufferView":3,"byteOffset":0,"componentType":5126,"count":2149,"type":"VEC2"}],"asset":{"generator":"FBX2glTF v0.13.1","version":"2.0"},"bufferViews":[{"buffer":0,"byteLength":25344,"byteOffset":0,"target":34963},{"buffer":0,"byteLength":25788,"byteOffset":25344,"target":34962},{"buffer":0,"byteLength":25788,"byteOffset":51132,"target":34962},{"buffer":0,"byteLength":17192,"byteOffset":76920,"target":34962}],"buffers":[{"byteLength":94112,"uri":"GlobeSphere.bin"}],"materials":[{"alphaMode":"OPAQUE","doubleSided":false,"extras":{"fromFBX":{"isTruePBR":false,"shadingModel":"Lambert"}},"name":"DefaultMaterial","pbrMetallicRoughness":{"baseColorFactor":[0.5,0.5,0.5,1],"metallicFactor":0.200000002980232,"roughnessFactor":0.800000011920929}}],"meshes":[{"name":"Sphere1","primitives":[{"attributes":{"NORMAL":2,"POSITION":1,"TEXCOORD_0":3},"indices":0,"material":0,"mode":4}]}],"nodes":[{"mesh":0,"name":"Sphere1","rotation":[0,0,0,1],"scale":[1,1,1],"translation":[0,0,0]}],"samplers":[{}],"scene":0,"scenes":[{"name":"Root Scene","nodes":[0]}]}