{"accessors":[{"bufferView":0,"byteOffset":0,"componentType":5123,"count":180,"type":"SCALAR"},{"bufferView":1,"byteOffset":0,"componentType":5126,"count":95,"max":[0.19999997317791,0,0.0249999985098839],"min":[-0.19999998807907,-0.60000002384186,-0.02499999850988],"type":"VEC3"},{"bufferView":2,"byteOffset":0,"componentType":5126,"count":95,"type":"VEC3"},{"bufferView":3,"byteOffset":0,"componentType":5126,"count":95,"type":"VEC2"},{"bufferView":4,"byteOffset":0,"componentType":5123,"count":1332,"type":"SCALAR"},{"bufferView":5,"byteOffset":0,"componentType":5126,"count":553,"max":[0.196002438664436,0.127450257539749,0.196002438664436],"min":[-0.19600242376328,-0.32745027542114,-0.19600240886211],"type":"VEC3"},{"bufferView":6,"byteOffset":0,"componentType":5126,"count":553,"type":"VEC3"},{"bufferView":7,"byteOffset":0,"componentType":5126,"count":553,"type":"VEC2"}],"asset":{"generator":"FBX2glTF v0.13.1","version":"2.0"},"bufferViews":[{"buffer":0,"byteLength":360,"byteOffset":0,"target":34963},{"buffer":0,"byteLength":1140,"byteOffset":360,"target":34962},{"buffer":0,"byteLength":1140,"byteOffset":1500,"target":34962},{"buffer":0,"byteLength":760,"byteOffset":2640,"target":34962},{"buffer":0,"byteLength":2664,"byteOffset":3400,"target":34963},{"buffer":0,"byteLength":6636,"byteOffset":6064,"target":34962},{"buffer":0,"byteLength":6636,"byteOffset":12700,"target":34962},{"buffer":0,"byteLength":4424,"byteOffset":19336,"target":34962}],"buffers":[{"byteLength":23760,"uri":"Light3.bin"}],"materials":[{"alphaMode":"OPAQUE","doubleSided":false,"extras":{"fromFBX":{"isTruePBR":false,"shadingModel":"Lambert"}},"name":"DefaultMaterial","pbrMetallicRoughness":{"baseColorFactor":[0.5,0.5,0.5,1],"metallicFactor":0.200000002980232,"roughnessFactor":0.800000011920929}}],"meshes":[{"name":"LightBracket","primitives":[{"attributes":{"NORMAL":2,"POSITION":1,"TEXCOORD_0":3},"indices":0,"material":0,"mode":4}]},{"name":"Light3","primitives":[{"attributes":{"NORMAL":6,"POSITION":5,"TEXCOORD_0":7},"indices":4,"material":0,"mode":4}]}],"nodes":[{"mesh":0,"name":"LightBracket","rotation":[0,0,0,1],"scale":[1,1,1],"translation":[0,0,0]},{"mesh":1,"name":"Light3","rotation":[0,0,0,1],"scale":[1,1,1],"translation":[0,-0.55000001192093,0]}],"samplers":[{}],"scene":0,"scenes":[{"name":"Root Scene","nodes":[0,1]}]}