{"accessors":[{"bufferView":0,"byteOffset":0,"componentType":5123,"count":54,"type":"SCALAR"},{"bufferView":1,"byteOffset":0,"componentType":5126,"count":36,"max":[0.5,0.00000000558793544769287,0.0999999865889549],"min":[-0.5,-0.05000000447035,-0.09999998658895],"type":"VEC3"},{"bufferView":2,"byteOffset":0,"componentType":5126,"count":36,"type":"VEC3"},{"bufferView":3,"byteOffset":0,"componentType":5126,"count":36,"type":"VEC2"}],"asset":{"generator":"FBX2glTF v0.13.1","version":"2.0"},"bufferViews":[{"buffer":0,"byteLength":108,"byteOffset":0,"target":34963},{"buffer":0,"byteLength":432,"byteOffset":108,"target":34962},{"buffer":0,"byteLength":432,"byteOffset":540,"target":34962},{"buffer":0,"byteLength":288,"byteOffset":972,"target":34962}],"buffers":[{"byteLength":1260,"uri":"Light1.bin"}],"materials":[{"alphaMode":"OPAQUE","doubleSided":false,"extras":{"fromFBX":{"isTruePBR":false,"shadingModel":"Phong"}},"name":"Material","pbrMetallicRoughness":{"baseColorFactor":[0.800000011920929,0.800000011920929,0.800000011920929,1],"metallicFactor":0.400000005960464,"roughnessFactor":0.272165536880493}}],"meshes":[{"name":"Light1","primitives":[{"attributes":{"NORMAL":2,"POSITION":1,"TEXCOORD_0":3},"indices":0,"material":0,"mode":4}]}],"nodes":[{"mesh":0,"name":"Light1","rotation":[0,0,0,1],"scale":[1,1,1],"translation":[0,0,0]}],"samplers":[{}],"scene":0,"scenes":[{"name":"Root Scene","nodes":[0]}]}