{"accessors":[{"bufferView":0,"byteOffset":0,"componentType":5123,"count":858,"type":"SCALAR"},{"bufferView":1,"byteOffset":0,"componentType":5126,"count":306,"max":[0.300000011920929,0,0.300000011920929],"min":[-0.30000001192093,-0.30000001192093,-0.30000001192093],"type":"VEC3"},{"bufferView":2,"byteOffset":0,"componentType":5126,"count":306,"type":"VEC3"},{"bufferView":3,"byteOffset":0,"componentType":5126,"count":306,"type":"VEC2"}],"asset":{"generator":"FBX2glTF v0.13.1","version":"2.0"},"bufferViews":[{"buffer":0,"byteLength":1716,"byteOffset":0,"target":34963},{"buffer":0,"byteLength":3672,"byteOffset":1716,"target":34962},{"buffer":0,"byteLength":3672,"byteOffset":5388,"target":34962},{"buffer":0,"byteLength":2448,"byteOffset":9060,"target":34962}],"buffers":[{"byteLength":11508,"uri":"Light2.bin"}],"materials":[{"alphaMode":"OPAQUE","doubleSided":false,"extras":{"fromFBX":{"isTruePBR":false,"shadingModel":"Lambert"}},"name":"DefaultMaterial","pbrMetallicRoughness":{"baseColorFactor":[0.5,0.5,0.5,1],"metallicFactor":0.200000002980232,"roughnessFactor":0.800000011920929}}],"meshes":[{"name":"Light2","primitives":[{"attributes":{"NORMAL":2,"POSITION":1,"TEXCOORD_0":3},"indices":0,"material":0,"mode":4}]}],"nodes":[{"mesh":0,"name":"Light2","rotation":[0,0,0,1],"scale":[1,1,1],"translation":[0,0,0]}],"samplers":[{}],"scene":0,"scenes":[{"name":"Root Scene","nodes":[0]}]}