{"accessors":[{"bufferView":0,"byteOffset":0,"componentType":5123,"count":474,"type":"SCALAR"},{"bufferView":1,"byteOffset":0,"componentType":5126,"count":181,"max":[0.5,1.41713798046112,0.280000030994415],"min":[-0.5,-0.00000011920929,-0.20286424458027],"type":"VEC3"},{"bufferView":2,"byteOffset":0,"componentType":5126,"count":181,"type":"VEC3"},{"bufferView":3,"byteOffset":0,"componentType":5126,"count":181,"type":"VEC2"},{"bufferView":4,"byteOffset":0,"componentType":5126,"count":181,"type":"VEC2"}],"asset":{"generator":"FBX2glTF v0.13.1","version":"2.0"},"bufferViews":[{"buffer":0,"byteLength":948,"byteOffset":0,"target":34963},{"buffer":0,"byteLength":2172,"byteOffset":948,"target":34962},{"buffer":0,"byteLength":2172,"byteOffset":3120,"target":34962},{"buffer":0,"byteLength":1448,"byteOffset":5292,"target":34962},{"buffer":0,"byteLength":1448,"byteOffset":6740,"target":34962}],"buffers":[{"byteLength":8188,"uri":"Screen.bin"}],"materials":[{"alphaMode":"OPAQUE","doubleSided":false,"extras":{"fromFBX":{"isTruePBR":false,"shadingModel":"Phong"}},"name":"Material.001","pbrMetallicRoughness":{"baseColorFactor":[0.800000011920929,0.800000011920929,0.800000011920929,1],"metallicFactor":0.400000005960464,"roughnessFactor":0.272165536880493}}],"meshes":[{"name":"Screen","primitives":[{"attributes":{"NORMAL":2,"POSITION":1,"TEXCOORD_0":3,"TEXCOORD_1":4},"indices":0,"material":0,"mode":4}]}],"nodes":[{"mesh":0,"name":"Screen","rotation":[0,0,0,1],"scale":[1,1,1],"translation":[0,0,0]}],"samplers":[{}],"scene":0,"scenes":[{"name":"Root Scene","nodes":[0]}]}