{"accessors":[{"bufferView":0,"byteOffset":0,"componentType":5123,"count":288,"type":"SCALAR"},{"bufferView":1,"byteOffset":0,"componentType":5126,"count":112,"max":[0.5,0.311250001192093,0.0285477638244629],"min":[-0.5,-0.28125,-0.01145242154598],"type":"VEC3"},{"bufferView":2,"byteOffset":0,"componentType":5126,"count":112,"type":"VEC3"},{"bufferView":3,"byteOffset":0,"componentType":5126,"count":112,"type":"VEC2"}],"asset":{"generator":"FBX2glTF v0.13.1","version":"2.0"},"bufferViews":[{"buffer":0,"byteLength":576,"byteOffset":0,"target":34963},{"buffer":0,"byteLength":1344,"byteOffset":576,"target":34962},{"buffer":0,"byteLength":1344,"byteOffset":1920,"target":34962},{"buffer":0,"byteLength":896,"byteOffset":3264,"target":34962}],"buffers":[{"byteLength":4160,"uri":"Screen2.bin"}],"materials":[{"alphaMode":"OPAQUE","doubleSided":false,"extras":{"fromFBX":{"isTruePBR":false,"shadingModel":"Phong"}},"name":"Material.001","pbrMetallicRoughness":{"baseColorFactor":[0.800000011920929,0.800000011920929,0.800000011920929,1],"metallicFactor":0.400000005960464,"roughnessFactor":0.272165536880493}}],"meshes":[{"name":"Screen","primitives":[{"attributes":{"NORMAL":2,"POSITION":1,"TEXCOORD_0":3},"indices":0,"material":0,"mode":4}]}],"nodes":[{"mesh":0,"name":"Screen","rotation":[0,0,0,1],"scale":[1,1,1],"translation":[0,0,0]}],"samplers":[{}],"scene":0,"scenes":[{"name":"Root Scene","nodes":[0]}]}