{"accessors":[{"bufferView":0,"byteOffset":0,"componentType":5123,"count":372,"type":"SCALAR"},{"bufferView":1,"byteOffset":0,"componentType":5126,"count":120,"max":[0.0999999865889549,0.150000005960464,0.0149999856948853],"min":[-0.09999998658895,-0.15000000596046,-0.01499998569489],"type":"VEC3"},{"bufferView":2,"byteOffset":0,"componentType":5126,"count":120,"type":"VEC3"},{"bufferView":3,"byteOffset":0,"componentType":5126,"count":120,"type":"VEC2"}],"asset":{"generator":"FBX2glTF v0.13.1","version":"2.0"},"bufferViews":[{"buffer":0,"byteLength":744,"byteOffset":0,"target":34963},{"buffer":0,"byteLength":1440,"byteOffset":744,"target":34962},{"buffer":0,"byteLength":1440,"byteOffset":2184,"target":34962},{"buffer":0,"byteLength":960,"byteOffset":3624,"target":34962}],"buffers":[{"byteLength":4584,"uri":"Switch.bin"}],"materials":[{"alphaMode":"OPAQUE","doubleSided":false,"extras":{"fromFBX":{"isTruePBR":false,"shadingModel":"Lambert"}},"name":"DefaultMaterial","pbrMetallicRoughness":{"baseColorFactor":[0.5,0.5,0.5,1],"metallicFactor":0.200000002980232,"roughnessFactor":0.800000011920929}}],"meshes":[{"name":"Switch","primitives":[{"attributes":{"NORMAL":2,"POSITION":1,"TEXCOORD_0":3},"indices":0,"material":0,"mode":4}]}],"nodes":[{"mesh":0,"name":"Switch","rotation":[0,0,0,1],"scale":[1,1,1],"translation":[0,0,0]}],"samplers":[{}],"scene":0,"scenes":[{"name":"Root Scene","nodes":[0]}]}