{"accessors":[{"bufferView":0,"byteOffset":0,"componentType":5123,"count":192,"type":"SCALAR"},{"bufferView":1,"byteOffset":0,"componentType":5126,"count":96,"max":[0.5,0.0500000230967999,0.424999982118607],"min":[-0.5,-0.0500000230968,-0.42499998211861],"type":"VEC3"},{"bufferView":2,"byteOffset":0,"componentType":5126,"count":96,"type":"VEC3"},{"bufferView":3,"byteOffset":0,"componentType":5126,"count":96,"type":"VEC2"}],"asset":{"generator":"FBX2glTF v0.13.1","version":"2.0"},"bufferViews":[{"buffer":0,"byteLength":384,"byteOffset":0,"target":34963},{"buffer":0,"byteLength":1152,"byteOffset":384,"target":34962},{"buffer":0,"byteLength":1152,"byteOffset":1536,"target":34962},{"buffer":0,"byteLength":768,"byteOffset":2688,"target":34962}],"buffers":[{"byteLength":3456,"uri":"Tubes.bin"}],"materials":[{"alphaMode":"OPAQUE","doubleSided":false,"extras":{"fromFBX":{"isTruePBR":false,"shadingModel":"Lambert"}},"name":"DefaultMaterial","pbrMetallicRoughness":{"baseColorFactor":[0.5,0.5,0.5,1],"metallicFactor":0.200000002980232,"roughnessFactor":0.800000011920929}}],"meshes":[{"name":"Tubes","primitives":[{"attributes":{"NORMAL":2,"POSITION":1,"TEXCOORD_0":3},"indices":0,"material":0,"mode":4}]}],"nodes":[{"mesh":0,"name":"Tubes","rotation":[0,0,0,1],"scale":[1,1,1],"translation":[0,0,0]}],"samplers":[{}],"scene":0,"scenes":[{"name":"Root Scene","nodes":[0]}]}