{"accessors":[{"bufferView":0,"byteOffset":0,"componentType":5123,"count":12,"type":"SCALAR"},{"bufferView":1,"byteOffset":0,"componentType":5126,"count":8,"max":[0.5,4,0.0000000874227765734759],"min":[-0.5,0,-0.00000008742278],"type":"VEC3"},{"bufferView":2,"byteOffset":0,"componentType":5126,"count":8,"type":"VEC3"},{"bufferView":3,"byteOffset":0,"componentType":5126,"count":8,"type":"VEC2"}],"asset":{"generator":"FBX2glTF v0.13.1","version":"2.0"},"bufferViews":[{"buffer":0,"byteLength":24,"byteOffset":0,"target":34963},{"buffer":0,"byteLength":96,"byteOffset":24,"target":34962},{"buffer":0,"byteLength":96,"byteOffset":120,"target":34962},{"buffer":0,"byteLength":64,"byteOffset":216,"target":34962}],"buffers":[{"byteLength":280,"uri":"Wall.bin"}],"materials":[{"alphaMode":"OPAQUE","doubleSided":false,"extras":{"fromFBX":{"isTruePBR":false,"shadingModel":"Phong"}},"name":"Material.001","pbrMetallicRoughness":{"baseColorFactor":[0.800000011920929,0.800000011920929,0.800000011920929,1],"metallicFactor":0.400000005960464,"roughnessFactor":0.272165536880493}}],"meshes":[{"name":"Wall4m","primitives":[{"attributes":{"NORMAL":2,"POSITION":1,"TEXCOORD_0":3},"indices":0,"material":0,"mode":4}]}],"nodes":[{"mesh":0,"name":"Wall4m","rotation":[0,0,0,1],"scale":[1,1,1],"translation":[0,0,0]}],"samplers":[{}],"scene":0,"scenes":[{"name":"Root Scene","nodes":[0]}]}