{"accessors":[{"bufferView":0,"byteOffset":0,"componentType":5123,"count":708,"type":"SCALAR"},{"bufferView":1,"byteOffset":0,"componentType":5126,"count":178,"max":[0.020000021904707,0.0200000014156103,0.025000486522913],"min":[-0.51999998092651,-0.08614777028561,-0.0848890170455],"type":"VEC3"},{"bufferView":2,"byteOffset":0,"componentType":5126,"count":178,"type":"VEC3"},{"bufferView":3,"byteOffset":0,"componentType":5126,"count":178,"type":"VEC2"}],"asset":{"generator":"FBX2glTF v0.13.1","version":"2.0"},"bufferViews":[{"buffer":0,"byteLength":1416,"byteOffset":0,"target":34963},{"buffer":0,"byteLength":2136,"byteOffset":1416,"target":34962},{"buffer":0,"byteLength":2136,"byteOffset":3552,"target":34962},{"buffer":0,"byteLength":1424,"byteOffset":5688,"target":34962}],"buffers":[{"byteLength":7112,"uri":"Wire2.bin"}],"materials":[{"alphaMode":"OPAQUE","doubleSided":false,"extras":{"fromFBX":{"isTruePBR":false,"shadingModel":"Lambert"}},"name":"DefaultMaterial","pbrMetallicRoughness":{"baseColorFactor":[0.5,0.5,0.5,1],"metallicFactor":0.200000002980232,"roughnessFactor":0.800000011920929}}],"meshes":[{"name":"Cylinder","primitives":[{"attributes":{"NORMAL":2,"POSITION":1,"TEXCOORD_0":3},"indices":0,"material":0,"mode":4}]}],"nodes":[{"mesh":0,"name":"Cylinder","rotation":[0,0,0,1],"scale":[1,1,1],"translation":[0,0,0]}],"samplers":[{}],"scene":0,"scenes":[{"name":"Root Scene","nodes":[0]}]}