{"accessors":[{"bufferView":0,"byteOffset":0,"componentType":5123,"count":30,"type":"SCALAR"},{"bufferView":1,"byteOffset":0,"componentType":5126,"count":20,"max":[0.0999999865889549,0.0999999940395355,0.0000000100582839834829],"min":[-0.09999998658895,-0.09999998658895,-0.05000000819564],"type":"VEC3"},{"bufferView":2,"byteOffset":0,"componentType":5126,"count":20,"type":"VEC3"},{"bufferView":3,"byteOffset":0,"componentType":5126,"count":20,"type":"VEC2"}],"asset":{"generator":"FBX2glTF v0.13.1","version":"2.0"},"bufferViews":[{"buffer":0,"byteLength":60,"byteOffset":0,"target":34963},{"buffer":0,"byteLength":240,"byteOffset":60,"target":34962},{"buffer":0,"byteLength":240,"byteOffset":300,"target":34962},{"buffer":0,"byteLength":160,"byteOffset":540,"target":34962}],"buffers":[{"byteLength":700,"uri":"WirePanel.bin"}],"materials":[{"alphaMode":"OPAQUE","doubleSided":false,"extras":{"fromFBX":{"isTruePBR":false,"shadingModel":"Lambert"}},"name":"DefaultMaterial","pbrMetallicRoughness":{"baseColorFactor":[0.5,0.5,0.5,1],"metallicFactor":0.200000002980232,"roughnessFactor":0.800000011920929}}],"meshes":[{"name":"WirePanel","primitives":[{"attributes":{"NORMAL":2,"POSITION":1,"TEXCOORD_0":3},"indices":0,"material":0,"mode":4}]}],"nodes":[{"mesh":0,"name":"WirePanel","rotation":[0,0,0,1],"scale":[1,1,1],"translation":[0,0,0]}],"samplers":[{}],"scene":0,"scenes":[{"name":"Root Scene","nodes":[0]}]}